<?xml version="1.0" encoding="UTF-8"?>
<svg viewBox="0 0 90 90" width="90" height="90" fill="none" xmlns="http://www.w3.org/2000/svg">
  <path fill-rule="evenodd" clip-rule="evenodd" d="M45 89.9999C69.8528 89.9999 89.9999 69.8528 89.9999 45C89.9999 20.1472 69.8528 0 45 0C20.1472 0 0 20.1472 0 45C0 69.8528 20.1472 89.9999 45 89.9999Z" fill="url(#paint0_linear_1_49380)"/>
  <path fill-rule="evenodd" clip-rule="evenodd" d="M18 80.9996C25.515 86.6471 34.875 89.9996 45 89.9996C55.125 89.9996 64.485 86.6471 72 80.9996H18Z" fill="#FF2D55"/>
  <path fill-rule="evenodd" clip-rule="evenodd" d="M9.00008 71.9996C11.5651 75.3971 14.6026 78.4346 18.0001 80.9996H72C75.3975 78.4346 78.435 75.3971 81 71.9996H9.00008Z" fill="#FFA25A"/>
  <path fill-rule="evenodd" clip-rule="evenodd" d="M60.3675 62.9997H3.75757C5.15257 66.2172 6.93007 69.2322 9.00006 71.9997H60.39V62.9997H60.3675Z" fill="#FFC95B"/>
  <path fill-rule="evenodd" clip-rule="evenodd" d="M31.8826 29.2496V62.9996H60.0075L31.8826 29.2496Z" fill="url(#paint1_linear_1_49380)"/>
  <path fill-rule="evenodd" clip-rule="evenodd" d="M3.75757 62.9997H31.8826V29.2497L3.75757 62.9997Z" fill="white"/>
  <path fill-rule="evenodd" clip-rule="evenodd" d="M60.3675 47.25V72H81L60.3675 47.25Z" fill="url(#paint2_linear_1_49380)"/>
  <path fill-rule="evenodd" clip-rule="evenodd" d="M39.7574 72H60.3674V47.25L39.7574 72Z" fill="white"/>
  <path fill-rule="evenodd" clip-rule="evenodd" d="M60.3675 40.4997C66.5807 40.4997 71.6175 35.4629 71.6175 29.2497C71.6175 23.0365 66.5807 17.9997 60.3675 17.9997C54.1543 17.9997 49.1175 23.0365 49.1175 29.2497C49.1175 35.4629 54.1543 40.4997 60.3675 40.4997Z" fill="#FFC95B"/>
  <path fill-rule="evenodd" clip-rule="evenodd" d="M31.8824 22.4997C34.989 22.4997 37.5074 19.9813 37.5074 16.8747C37.5074 13.7681 34.989 11.2497 31.8824 11.2497C28.7758 11.2497 26.2574 13.7681 26.2574 16.8747C26.2574 19.9813 28.7758 22.4997 31.8824 22.4997Z" fill="#FFC95B"/>
  <defs>
    <linearGradient id="paint0_linear_1_49380" x1="45" y1="-18.6396" x2="-18.6396" y2="45" gradientUnits="userSpaceOnUse">
      <stop stop-color="#FF2D55"/>
      <stop offset="1" stop-color="#FFBC5B"/>
    </linearGradient>
    <linearGradient id="paint1_linear_1_49380" x1="31.8731" y1="29.2497" x2="31.8731" y2="62.9996" gradientUnits="userSpaceOnUse">
      <stop stop-color="#A524B3"/>
      <stop offset="1" stop-color="#FF2D55"/>
    </linearGradient>
    <linearGradient id="paint2_linear_1_49380" x1="60.3605" y1="47.25" x2="60.3605" y2="72" gradientUnits="userSpaceOnUse">
      <stop stop-color="#A524B3"/>
      <stop offset="1" stop-color="#FF2D55"/>
    </linearGradient>
  </defs>
</svg>
